<svg width="36" height="36" viewBox="0 0 36 36" fill="none" xmlns="http://www.w3.org/2000/svg">
<path d="M18 0C8.0595 0 0 8.0595 0 18C0 27.9405 8.0595 36 18 36C27.9405 36 36 27.9405 36 18C36 8.0595 27.9405 0 18 0ZM15 24H12V15H15V24ZM13.5 13.6635C12.5895 13.6635 11.85 12.9195 11.85 12C11.85 11.082 12.588 10.3365 13.5 10.3365C14.412 10.3365 15.15 11.082 15.15 12C15.15 12.9195 14.4105 13.6635 13.5 13.6635ZM25.5 24H22.503V19.7085C22.503 16.887 19.5 17.1255 19.5 19.7085V24H16.5V15H19.5V16.6395C20.808 14.2155 25.5 14.0355 25.5 18.9615V24Z" fill="#386B3E"/>
</svg>
