<svg width="36" height="36" viewBox="0 0 36 36" fill="none" xmlns="http://www.w3.org/2000/svg">
<path fill-rule="evenodd" clip-rule="evenodd" d="M18 0C8.061 0 0 8.058 0 18C0 27.9405 8.061 36 18 36C27.9405 36 36 27.9405 36 18C36 8.058 27.9405 0 18 0ZM28.461 26.3355V25.983L26.823 24.375C26.679 24.2655 26.607 24.084 26.637 23.9055V12.0945C26.607 11.916 26.679 11.7345 26.823 11.625L28.5 10.017V9.6645H22.6965L18.5595 19.9845L13.8525 9.6645H7.764V10.017L9.726 12.3795C9.918 12.552 10.017 12.807 9.99 13.065V22.347C10.047 22.6815 9.942 23.0235 9.7065 23.268L7.5 25.944V26.2965H13.755V25.944L11.5485 23.268C11.3115 23.0235 11.199 22.6845 11.2455 22.347V14.319L16.7355 26.2965H17.373L22.0875 14.319V23.8665C22.0875 24.1215 22.0875 24.1695 21.921 24.336L20.226 25.983V26.3355H28.461V26.3355Z" fill="#488A50"/>
</svg>
