<svg width="36" height="36" viewBox="0 0 36 36" fill="none" xmlns="http://www.w3.org/2000/svg">
<path d="M18 0C8.0595 0 0 8.0595 0 18C0 27.9405 8.0595 36 18 36C27.9405 36 36 27.9405 36 18C36 8.0595 27.9405 0 18 0ZM19.3035 8.8545L23.9745 15.705L22.512 16.7025L17.8395 9.852L19.3035 8.8545V8.8545ZM15.0855 12.732L22.3455 16.989L21.4455 18.5145L14.1825 14.2575L15.0855 12.732V12.732ZM13.1715 16.818L21.291 19.0995L20.8545 20.715L12.7125 18.528L13.1715 16.818ZM12.2895 20.5095L20.82 21.363L20.6655 23.043L12.129 22.2735L12.2895 20.5095V20.5095ZM12.036 23.7495H20.7885V25.5H12.036V23.7495ZM24 28.5H9V19.5H10.5V27H22.5V19.5H24V28.5ZM24.2925 15.597L22.875 7.428L24.618 7.125L26.0385 15.294L24.2925 15.597V15.597Z" fill="#1EA1A1"/>
</svg>
